# xmcd
#
# Track frame offsets: 
#        150
#        21497
#        45795
#        66755
#        86515
#        97583
#        117846
#        137116
#        162523
#        181103
#        209936
#        234906
#        261311
#        284111
#        307798
#        326830
#
# Disc length: 4685 seconds
#
# Revision: 0
# Processed by: cddbd v1.5.2PL0 Copyright (c) Steve Scherf et al.
# Submitted via: ExactAudioCopy v0.99pb1
#
DISCID=e0124b10
DTITLE=Eric Clapton - Me And Mr. Johnson
DYEAR=2004
DGENRE=Blues
TTITLE0=Blue Eyes Blue
TTITLE1=My Father's Eyes
TTITLE2=Layla
TTITLE3=Riding With The King (with B. B. King)
TTITLE4=Hound Dog
TTITLE5=Got You In My Mind
TTITLE6=Travelin' Light
TTITLE7=No Alibis
TTITLE8=Rund So Far
TTITLE9=Old Love
TTITLE10=Breaking Point
TTITLE11=Lead Me On
TTITLE12=Superman Inside
TTITLE13=Bad Love
TTITLE14=It's In The Way That You See It
TTITLE15=Wonderful Tonight
EXTD=
EXTT0=
EXTT1=
EXTT2=
EXTT3=
EXTT4=
EXTT5=
EXTT6=
EXTT7=
EXTT8=
EXTT9=
EXTT10=
EXTT11=
EXTT12=
EXTT13=
EXTT14=
EXTT15=
PLAYORDER=
